<svg id="_9" data-name="9" xmlns="http://www.w3.org/2000/svg" viewBox="0 0 283.46 283.46"><defs><style>.cls-1,.cls-3{fill:#fff;}.cls-2{fill:#231f20;stroke-width:0.41px;}.cls-2,.cls-3{stroke:#231f20;stroke-miterlimit:10;}.cls-3{stroke-width:0.5px;}</style></defs><rect class="cls-1" x="33.96" width="14.17" height="283.46"/><rect class="cls-1" x="236.73" width="14.17" height="283.46"/><rect class="cls-2" x="140.4" y="9.51" width="2.67" height="11.67"/><rect class="cls-2" x="140.4" y="27.65" width="2.67" height="11.67"/><rect class="cls-2" x="140.4" y="45.79" width="2.67" height="11.67"/><rect class="cls-2" x="140.4" y="63.93" width="2.67" height="11.67"/><rect class="cls-2" x="140.4" y="82.06" width="2.67" height="11.67"/><rect class="cls-2" x="140.4" y="100.2" width="2.67" height="11.67"/><rect class="cls-2" x="140.4" y="117.26" width="2.67" height="11.67"/><rect class="cls-2" x="140.4" y="135.4" width="2.67" height="11.67"/><rect class="cls-2" x="140.4" y="153.54" width="2.67" height="11.67"/><rect class="cls-2" x="140.4" y="171.68" width="2.67" height="11.67"/><rect class="cls-2" x="140.4" y="189.82" width="2.67" height="11.67"/><rect class="cls-2" x="140.4" y="207.96" width="2.67" height="11.67"/><rect class="cls-2" x="140.4" y="226.01" width="2.67" height="11.67"/><rect class="cls-2" x="140.4" y="244.15" width="2.67" height="11.67"/><rect class="cls-2" x="140.4" y="262.29" width="2.67" height="11.67"/><path class="cls-3" d="M229.8,168c-1.35-7.94-1.17-12.77-6.42-15.32l-28.75-13.93a5.46,5.46,0,0,0,1.26-3.48v-9.13H185.25v8.07l-10.63-5.15a5.47,5.47,0,0,0,1.27-3.48v-9.13H165.25v8.08L151.72,118c.14-2.62.28-5.29.43-8.05,1.24-28.19-.24-43-10.42-46.93C131.55,67,130.08,81.77,131.32,110c.15,2.76.29,5.43.43,8.05l-13.54,6.56v-8.08H107.58v9.13a5.51,5.51,0,0,0,1.26,3.49l-10.63,5.14v-8.07H87.58v9.13a5.46,5.46,0,0,0,1.26,3.48L60.08,152.72C54.84,155.27,55,160.1,53.67,168l22.57-5.87v4.08a1.79,1.79,0,1,0,3.57,0v-5l10.49-2.73v4.33a1.79,1.79,0,0,0,3.57,0v-5.26l10.49-2.73v4.58a1.79,1.79,0,0,0,3.57,0v-5.51l10.5-2.73V156a1.79,1.79,0,1,0,3.57,0v-5.12h11.36c.28,6,.54,11.49.8,16.38.39,7.55.79,13.76,1.27,18.88l-25.05,17.19v7l28.68-7a2.69,2.69,0,0,0,.16.29V214a2.52,2.52,0,0,0,5,0V203.68a2.69,2.69,0,0,0,.16-.29l28.68,7v-7L148,186.15c.48-5.12.87-11.33,1.27-18.88.26-4.89.52-10.34.8-16.38h11.36V156a1.79,1.79,0,1,0,3.57,0v-4.82l10.5,2.73v5.51a1.78,1.78,0,0,0,3.56,0v-4.58l10.5,2.73v5.26a1.79,1.79,0,0,0,3.57,0v-4.33l10.49,2.73v5a1.79,1.79,0,1,0,3.57,0v-4.08Z"/></svg>