<svg id="_6" data-name="6" xmlns="http://www.w3.org/2000/svg" viewBox="0 0 24 24"><defs><style>.cls-1{fill:#586b7c;}.cls-2{fill:#bfc4c8;}.cls-3{fill:#bac2c5;}</style></defs><path class="cls-1" d="M22.86,17.1H1.14V1.7H22.86Z"/><rect class="cls-1" x="10.11" y="18.98" width="3.78" height="3.45"/><path class="cls-2" d="M23.91,1.65A1.09,1.09,0,0,0,22.82.55H1.18A1.09,1.09,0,0,0,.09,1.65V18.42a1.1,1.1,0,0,0,1.09,1.1H22.82a1.1,1.1,0,0,0,1.09-1.1ZM22.86,17.1H1.14V1.7H22.86Z"/><path class="cls-1" d="M22,18.64H21A.34.34,0,1,1,21,18h1a.34.34,0,1,1,0,.68Z"/><path class="cls-1" d="M17.11,22.11H6.89a1.34,1.34,0,0,0-1.34,1.34h12.9A1.34,1.34,0,0,0,17.11,22.11Z"/><path class="cls-3" d="M14,14.35h0a.18.18,0,0,1-.16-.16l-1-7.87L12,12.41a.2.2,0,0,1-.17.16.18.18,0,0,1-.19-.12L11.11,11l-.44,1.08a.18.18,0,0,1-.17.11h0a.17.17,0,0,1-.17-.12l-.77-2H9.12L8.8,11.51a.19.19,0,0,1-.18.14H4.2A.18.18,0,0,1,4,11.47a.18.18,0,0,1,.18-.19H8.47l.32-1.43A.18.18,0,0,1,9,9.71h.71a.18.18,0,0,1,.18.12l.65,1.7.43-1.07a.19.19,0,0,1,.18-.11.19.19,0,0,1,.17.12l.45,1.17.87-6.8a.18.18,0,0,1,.18-.16h0a.18.18,0,0,1,.19.16l1.11,8.56.75-2a.2.2,0,0,1,.18-.12H19.8a.18.18,0,0,1,.18.19.18.18,0,0,1-.18.18H15.14l-1,2.58A.2.2,0,0,1,14,14.35Z"/></svg>