<svg id="_6" data-name="6" xmlns="http://www.w3.org/2000/svg" viewBox="0 0 24 24"><defs><style>.cls-1{fill:#566676;}.cls-1,.cls-2,.cls-3,.cls-4{stroke:#231f20;stroke-miterlimit:10;stroke-width:0.05px;}.cls-12,.cls-2{fill:#586b7a;}.cls-3{fill:#5a6b7b;}.cls-4{fill:#bac2c5;}.cls-5{fill:#babfc5;}.cls-6{fill:#bbc2ca;}.cls-7{fill:#bcc3c9;}.cls-8{fill:#586b7c;}.cls-9{fill:#5e6b7b;}.cls-10{fill:#5b6e7d;}.cls-11{fill:#586979;}</style></defs><path class="cls-1" d="M9.5,15.5a10,10,0,0,1-4,1c-1-2-4.93-2.58-4.95-2.58A8.51,8.51,0,0,0,9,21.5a8.31,8.31,0,0,0,3.88-.95S11.49,14.5,9.5,15.5Z"/><path class="cls-2" d="M8.5,11.5s3.63-4.78,3.32-6.39A8.51,8.51,0,0,0,9,4.5,8.39,8.39,0,0,0,3.76,6.3s-.25.21-.54.5C3.23,6.81,6.5,12.5,8.5,11.5Z"/><path class="cls-3" d="M14,6.28S11.5,10.5,11.5,11.5s3,1,3,1a10.07,10.07,0,0,1,1,3l.69,2A8.5,8.5,0,0,0,17.5,13,8.23,8.23,0,0,0,14,6.28Z"/><path class="cls-4" d="M14.5,12.5s-3,0-3-1S13.94,6.3,14,6.28a9.46,9.46,0,0,0-2.13-1.17C12.13,6.72,8.5,11.5,8.5,11.5c-2,1-5.27-4.69-5.28-4.7A9,9,0,0,0,.5,13c0,.31,0,.62.05.92,0,0,4,.58,5,2.58a10,10,0,0,0,4-1c2-1,3.38,5,3.38,5.05a8.4,8.4,0,0,0,3.31-3l-.69-2A10.07,10.07,0,0,0,14.5,12.5Z"/><polygon class="cls-5" points="17.18 23.33 11.05 22.69 11.05 16.18 17.18 16.28 17.18 23.33"/><polygon class="cls-6" points="17.18 23.33 19.16 21.81 19.26 16.1 17.18 16.28 17.18 23.33"/><polygon class="cls-7" points="11.05 16.18 17.18 16.28 19.26 16.1 14.46 16 11.05 16.18"/><polygon class="cls-8" points="13.73 16.23 14.58 16.24 14.58 17.72 13.73 17.72 13.73 16.23"/><polygon class="cls-9" points="14.58 16.24 13.73 16.23 15.86 16.03 16.64 16.05 14.58 16.24"/><polygon class="cls-10" points="18.26 16.19 18.26 17.57 18.54 17.53 18.54 16.16 18.26 16.19"/><polygon class="cls-11" points="18.15 21.55 18.15 22.59 18.43 22.37 18.43 21.36 18.15 21.55"/><path class="cls-12" d="M23,6.65a8.41,8.41,0,0,0-.38-1.3,7,7,0,0,0-3.84-3.86,7.47,7.47,0,0,0-1.3-.39L17.16,1a.52.52,0,0,0-.58.47h0A.52.52,0,0,0,17,2a5.65,5.65,0,0,1,1.41.38,5.88,5.88,0,0,1,2,1.32,6,6,0,0,1,1.31,2,5.65,5.65,0,0,1,.38,1.41.5.5,0,0,0,.52.43h0A.5.5,0,0,0,23.08,7C23.07,6.88,23.05,6.76,23,6.65Z"/><path class="cls-12" d="M20.8,6.1a4.87,4.87,0,0,0-1.1-1.66A4.91,4.91,0,0,0,17.05,3a.51.51,0,0,0-.59.47h0a.49.49,0,0,0,.41.52,4.55,4.55,0,0,1,.8.23,4.11,4.11,0,0,1,2.2,2.21,3.8,3.8,0,0,1,.22.8.5.5,0,0,0,.53.41h0a.49.49,0,0,0,.46-.59A4.86,4.86,0,0,0,20.8,6.1Z"/><path class="cls-12" d="M19,6.84a3,3,0,0,0-.66-1,2.87,2.87,0,0,0-1-.66L17,5.06a.5.5,0,0,0-.63.46h0A.49.49,0,0,0,16.7,6a2,2,0,0,1,.88.52,2,2,0,0,1,.51.88.49.49,0,0,0,.51.36h0a.5.5,0,0,0,.46-.63C19,7.05,19,7,19,6.84Z"/><circle class="cls-12" cx="16.58" cy="7.54" r="0.61"/></svg>