<svg xmlns="http://www.w3.org/2000/svg" xmlns:xlink="http://www.w3.org/1999/xlink" version="1.1" x="0px" y="0px"  viewBox="0 0 90 90" enable-background="new 0 0 70 70" xml:space="preserve"><path fill="#6b6b6b" d="M53.445,58.704c-2.458,1.519-5.345,2.41-8.446,2.41s-5.988-0.892-8.446-2.41c-1.695,0.952-3.224,2.166-4.512,3.606  L45,75.268l12.957-12.957C56.67,60.87,55.141,59.656,53.445,58.704z"/><g><path fill="#6b6b6b"  d="M28.886,45c0-2.278,0.479-4.443,1.332-6.407c-4.918,2.071-9.321,5.134-12.944,8.948l9.852,9.852   c1.288-1.396,2.74-2.637,4.318-3.704C29.832,51.18,28.886,48.203,28.886,45z"/></g><g><path fill="#6b6b6b"  d="M59.783,38.593c0.853,1.964,1.331,4.129,1.331,6.407c0,3.203-0.946,6.18-2.558,8.688c1.578,1.067,3.03,2.309,4.318,3.704   l9.854-9.852C69.104,43.728,64.701,40.665,59.783,38.593z"/></g><g><path fill="#6b6b6b"  d="M45,14.732c-16.686,0-31.747,6.92-42.5,18.035l9.855,9.855C20.594,34.021,32.178,28.648,45,28.648   c12.822,0,24.406,5.373,32.645,13.974l9.855-9.855C76.748,21.653,61.686,14.732,45,14.732z"/></g><g><path  d="M51.991,55.833l1.265-1.266l-3.55-11.421c5.38-5.611,6.568-8.048,5.828-8.788c-0.74-0.741-3.079,0.546-8.689,5.927   l-11.312-3.442l-1.266,1.266l8.516,6.27c-1.354,1.459-2.463,2.917-3.399,4.139l-4.588-0.562l-0.527,0.527l3.373,2.467   c-0.601,1.046-0.874,1.72-0.596,1.998c0.278,0.277,0.977,0.028,2.023-0.571l2.55,3.456l0.527-0.527l-0.631-4.657   c1.223-0.935,2.634-2.093,4.092-3.447L51.991,55.833z"/></g></svg>