<?xml version="1.0" encoding="utf-8"?>
<svg class="svg-icon" style="width: 1.462890625em; height: 1em;vertical-align: middle;fill: currentColor;overflow: hidden;" viewBox="0 0 1498 1024" version="1.1" xmlns="http://www.w3.org/2000/svg">
  <path fill="#0B204C" d="M 1396.274 1024 L 1396.274 1004.444 L 1478.937 1004.444 L 1478.937 921.637 L 1498.537 921.637 L 1498.537 1024 L 1396.274 1024 Z M 1478.937 19.6 L 1479.081 19.6 L 1479.081 19.575 L 1396.274 19.575 L 1396.274 0 L 1498.537 0 L 1498.537 102.238 L 1478.937 102.238 L 1478.937 19.6 Z M 1405.74 81.783 C 1416.206 92.215 1422.076 106.392 1422.049 121.169 L 1422.192 889.95 C 1422.124 920.749 1397.153 945.689 1366.353 945.72 L 122.693 945.72 C 91.89 945.682 66.927 920.727 66.878 889.925 L 66.878 121.288 C 66.906 90.474 91.879 65.501 122.693 65.474 L 1366.353 65.474 C 1381.014 65.474 1395.412 71.405 1405.74 81.783 Z M 1366.353 89.313 L 122.693 89.313 C 105.046 89.34 90.748 103.641 90.724 121.288 L 90.724 889.95 C 90.758 907.588 105.054 921.876 122.693 921.9 L 1366.353 921.9 C 1382.966 921.878 1396.8 909.15 1398.203 892.597 L 1398.203 121.169 C 1398.184 112.723 1394.834 104.626 1388.881 98.635 C 1382.897 92.675 1374.799 89.324 1366.353 89.313 Z M 465.776 678.013 L 1202.813 678.013 L 1202.813 727.277 L 465.776 727.277 L 465.776 678.013 Z M 609.33 423.78 L 1202.788 423.78 L 1202.788 473.038 L 609.33 473.038 L 609.33 423.78 Z M 609.33 300.944 L 1202.788 300.944 L 1202.788 350.345 L 609.33 350.345 L 609.33 300.944 Z M 609.33 176.94 L 1202.788 176.94 L 1202.788 226.335 L 609.33 226.335 L 609.33 176.94 Z M 485.613 423.78 L 580.933 423.78 L 580.933 473.038 L 485.613 473.038 L 485.613 423.78 Z M 485.613 300.944 L 580.933 300.944 L 580.933 350.202 L 485.613 350.202 L 485.613 300.944 Z M 485.613 178.226 L 580.933 178.226 L 580.933 227.484 L 485.613 227.484 L 485.613 178.226 Z M 417.155 727.277 L 200.254 727.277 L 200.254 678.013 L 417.155 678.013 L 417.155 727.277 Z M 417.155 823.621 L 200.254 823.621 L 200.254 774.363 L 417.155 774.363 L 417.155 823.621 Z M 1202.788 823.621 L 465.776 823.621 L 465.776 774.363 L 1202.788 774.363 L 1202.788 823.621 Z M 19.575 102.238 L 0 102.238 L 0 0 L 102.356 0 L 102.356 19.575 L 19.575 19.575 L 19.575 102.238 Z M 19.575 1004.444 L 102.356 1004.444 L 102.356 1024 L 0 1024 L 0 921.637 L 19.575 921.637 L 19.575 1004.444 Z"/>
  <ellipse fill="#0B204C" cx="290.926" cy="331.538" rx="167.556" ry="167.556"/>
</svg>
